<?xml version="1.0" encoding="UTF-8"?>
<svg id="Ebene_1" data-name="Ebene 1" xmlns="http://www.w3.org/2000/svg" xmlns:xlink="http://www.w3.org/1999/xlink" viewBox="0 0 111.06 70.83">
  <defs>
    <style>
      .cls-1 {
      fill: url(#Unbenannter_Verlauf_4);
      }
    </style>
    <linearGradient id="Unbenannter_Verlauf_4" x1="-38.04" y1="-39.36" x2="192.92" y2="137.72" gradientUnits="userSpaceOnUse">
      <stop offset=".37" stop-color="#bcb2ad"/>
      <stop offset=".38" stop-color="#bbb7b5"/>
      <stop offset=".46" stop-color="#b8cdd5"/>
      <stop offset=".54" stop-color="#b5ddec"/>
      <stop offset=".61" stop-color="#b4e6fa"/>
      <stop offset=".67" stop-color="#b4eaff"/>
    </linearGradient>
  </defs>
  <path class="cls-1" d="M108.01,61.13c.26-.38.51-.78.75-1.19,1.53-2.63,2.3-5.88,2.3-9.75,0-2.33-.38-4.43-1.15-6.3-.77-1.87-1.8-3.5-3.1-4.9-1.3-1.4-2.83-2.55-4.6-3.45-1.77-.9-3.65-1.52-5.65-1.85v-.2c3.47-1.13,6.27-2.98,8.4-5.55,2.13-2.57,3.2-5.82,3.2-9.75,0-3.6-.73-6.57-2.2-8.9-1.47-2.33-3.37-4.18-5.7-5.55-2.33-1.37-4.93-2.33-7.8-2.9C89.59.28,86.79,0,84.06,0h-28.2c-13.1.03-26.2.06-39.3.09C11.04,4.55,5.52,9.01,0,13.46c8.84.05,17.68.1,26.52.15-.09,19.03-.19,38.06-.28,57.09h16.22c-.02-19.03-.04-38.06-.07-57.09,4.49,0,8.98,0,13.47,0-.05,19.04-.1,38.08-.15,57.12,8.03.01,16.06.03,24.09.04v-13.71c-2.48-.02-4.96-.04-7.44-.06v-16.2h9.5c3.67,0,6.6.57,8.8,1.7,2.2,1.13,3.3,3.17,3.3,6.1,0,.13-.01.22-.01.25-.06.85-.1,3.28-.09,8.15h-4.62v13.81c2.08.03,3.64.03,4.28.02.12,0,.26,0,.43-.01h0s0,0,0,0c.16,0,.33-.02.53-.05.31-.04.58-.09.82-.14,0,0,.43-.08.78-.17.89-.22,1.99-.74,2.41-.95.47-.23,1.27-.63,2.26-1.27,1.45-.95,2.44-1.85,3.05-2.42.47-.43.85-.82,1.6-1.6.32-.33.56-.58.78-.82.48-.5.92-1.03,1.34-1.59.21-.27.36-.48.48-.67ZM89.01,26.25c-1.77,1.3-4.25,1.95-7.45,1.95h-9.2v-14.59h0s8.4,0,8.4,0c3.6,0,6.32.55,8.15,1.65,1.83,1.1,2.75,2.85,2.75,5.25,0,2.53-.88,4.45-2.65,5.75Z"/>
</svg>
